{"asset":{"generator":"Khronos glTF Blender I/O v1.3.48","version":"2.0"},"scene":0,"scenes":[{"name":"Scene","nodes":[0,2,3,4]}],"nodes":[{"mesh":0,"name":"Base","rotation":[0,-0.05078792944550514,0,0.9987095594406128],"scale":[5.395512104034424,5.395511150360107,5.395512104034424],"translation":[0,-20.661861419677734,0]},{"mesh":1,"name":"Eye","scale":[0.9866671562194824,1.089254379272461,0.9866671562194824],"translation":[-0.00546532217413187,0.1185007095336914,0.264018177986145]},{"children":[1],"mesh":2,"name":"Eye Holder","rotation":[0,-0.009599567390978336,0,0.9999539256095886],"scale":[4.090712070465088,3.705444097518921,4.090712070465088],"translation":[-0.011347770690917969,-20.19080352783203,-0.913080096244812]},{"mesh":3,"name":"Lid","rotation":[-0.0006355296936817467,-0.049829818308353424,0.00003130538607365452,0.998757541179657],"scale":[4.583424091339111,4.583424091339111,4.583423137664795],"translation":[0.011980056762695312,-20.04360580444336,-4.519564151763916]},{"name":"Point","rotation":[0.12913331389427185,0.016443494707345963,-0.44851154088974,0.8842464685440063],"translation":[17.39436149597168,-8.425422668457031,0.11458826065063477]}],"animations":[{"channels":[{"sampler":0,"target":{"node":0,"path":"translation"}}],"name":"BaseAction.002","samplers":[{"input":16,"interpolation":"LINEAR","output":17}]},{"channels":[{"sampler":0,"target":{"node":2,"path":"rotation"}},{"sampler":1,"target":{"node":2,"path":"translation"}}],"name":"Eye HolderAction","samplers":[{"input":18,"interpolation":"STEP","output":19},{"input":16,"interpolation":"LINEAR","output":20}]},{"channels":[{"sampler":0,"target":{"node":3,"path":"rotation"}},{"sampler":1,"target":{"node":3,"path":"translation"}}],"name":"LidAction.001","samplers":[{"input":21,"interpolation":"LINEAR","output":22},{"input":16,"interpolation":"LINEAR","output":23}]},{"channels":[{"sampler":0,"target":{"node":1,"path":"translation"}}],"name":"EyeAction.001","samplers":[{"input":16,"interpolation":"LINEAR","output":24}]},{"channels":[{"sampler":0,"target":{"node":4,"path":"translation"}}],"name":"PointAction.001","samplers":[{"input":16,"interpolation":"LINEAR","output":25}]}],"materials":[{"doubleSided":true,"emissiveFactor":[0,0,0],"name":"Material.003","pbrMetallicRoughness":{"baseColorFactor":[0,0,0,0.7409638166427612],"metallicFactor":0.3012048304080963,"roughnessFactor":0.5}},{"doubleSided":true,"emissiveFactor":[0,0,0],"name":"Material.004","pbrMetallicRoughness":{"baseColorTexture":{"index":0,"texCoord":0},"metallicFactor":0.46987950801849365,"roughnessFactor":0.5}},{"doubleSided":true,"emissiveFactor":[0,0,0],"name":"Material.002","pbrMetallicRoughness":{"baseColorFactor":[0,0,0,1],"metallicFactor":0,"roughnessFactor":0.5}},{"doubleSided":true,"emissiveFactor":[0.6678503751754761,0.6678503751754761,0.6678503751754761],"name":"Material.005","pbrMetallicRoughness":{"baseColorFactor":[0.800000011920929,0.800000011920929,0.800000011920929,1],"metallicFactor":1,"roughnessFactor":0.120481938123703}}],"meshes":[{"name":"Circle.001","primitives":[{"attributes":{"POSITION":0,"NORMAL":1,"TEXCOORD_0":2},"indices":3,"material":0}]},{"name":"Circle","primitives":[{"attributes":{"POSITION":4,"NORMAL":5,"TEXCOORD_0":6},"indices":7,"material":1}]},{"name":"Circle.006","primitives":[{"attributes":{"POSITION":8,"NORMAL":9,"TEXCOORD_0":10},"indices":11,"material":2}]},{"name":"Circle.008","primitives":[{"attributes":{"POSITION":12,"NORMAL":13,"TEXCOORD_0":14},"indices":15,"material":3}]}],"textures":[{"source":0}],"images":[{"mimeType":"image/png","name":"Screenshot 2020-11-20 at 10.34.09","uri":"data:application/octet-stream;base64,"}],"accessors":[{"bufferView":0,"componentType":5126,"count":1947,"max":[0.8493771553039551,0.21583013236522675,0.8493770360946655],"min":[-0.8493770360946655,0.04089328646659851,-0.8330567479133606],"type":"VEC3"},{"bufferView":1,"componentType":5126,"count":1947,"type":"VEC3"},{"bufferView":2,"componentType":5126,"count":1947,"type":"VEC2"},{"bufferView":3,"componentType":5123,"count":9552,"type":"SCALAR"},{"bufferView":4,"componentType":5126,"count":202,"max":[1,0,1],"min":[-1,0,-1],"type":"VEC3"},{"bufferView":5,"componentType":5126,"count":202,"type":"VEC3"},{"bufferView":6,"componentType":5126,"count":202,"type":"VEC2"},{"bufferView":7,"componentType":5123,"count":666,"type":"SCALAR"},{"bufferView":8,"componentType":5126,"count":852,"max":[1.0000550746917725,0.13201302289962769,1.2370800971984863],"min":[-0.9999449253082275,-0.19727326929569244,-0.7776450514793396],"type":"VEC3"},{"bufferView":9,"componentType":5126,"count":852,"type":"VEC3"},{"bufferView":10,"componentType":5126,"count":852,"type":"VEC2"},{"bufferView":11,"componentType":5123,"count":5112,"type":"SCALAR"},{"bufferView":12,"componentType":5126,"count":1526,"max":[1.0968949794769287,0.2747293710708618,1.9686548709869385],"min":[-0.9031050205230713,-0.035824328660964966,-0.031366705894470215],"type":"VEC3"},{"bufferView":13,"componentType":5126,"count":1526,"type":"VEC3"},{"bufferView":14,"componentType":5126,"count":1526,"type":"VEC2"},{"bufferView":15,"componentType":5123,"count":6552,"type":"SCALAR"},{"bufferView":16,"componentType":5126,"count":44,"max":[1.8333333333333333],"min":[0.041666666666666664],"type":"SCALAR"},{"bufferView":17,"componentType":5126,"count":44,"type":"VEC3"},{"bufferView":18,"componentType":5126,"count":1,"max":[2.9583333333333335],"min":[2.9583333333333335],"type":"SCALAR"},{"bufferView":19,"componentType":5126,"count":1,"type":"VEC4"},{"bufferView":20,"componentType":5126,"count":44,"type":"VEC3"},{"bufferView":21,"componentType":5126,"count":170,"max":[10],"min":[2.9583333333333335],"type":"SCALAR"},{"bufferView":22,"componentType":5126,"count":170,"type":"VEC4"},{"bufferView":23,"componentType":5126,"count":44,"type":"VEC3"},{"bufferView":24,"componentType":5126,"count":44,"type":"VEC3"},{"bufferView":25,"componentType":5126,"count":44,"type":"VEC3"}],"bufferViews":[{"buffer":0,"byteLength":23364,"byteOffset":0},{"buffer":0,"byteLength":23364,"byteOffset":23364},{"buffer":0,"byteLength":15576,"byteOffset":46728},{"buffer":0,"byteLength":19104,"byteOffset":62304},{"buffer":0,"byteLength":2424,"byteOffset":81408},{"buffer":0,"byteLength":2424,"byteOffset":83832},{"buffer":0,"byteLength":1616,"byteOffset":86256},{"buffer":0,"byteLength":1332,"byteOffset":87872},{"buffer":0,"byteLength":10224,"byteOffset":89204},{"buffer":0,"byteLength":10224,"byteOffset":99428},{"buffer":0,"byteLength":6816,"byteOffset":109652},{"buffer":0,"byteLength":10224,"byteOffset":116468},{"buffer":0,"byteLength":18312,"byteOffset":126692},{"buffer":0,"byteLength":18312,"byteOffset":145004},{"buffer":0,"byteLength":12208,"byteOffset":163316},{"buffer":0,"byteLength":13104,"byteOffset":175524},{"buffer":0,"byteLength":176,"byteOffset":188628},{"buffer":0,"byteLength":528,"byteOffset":188804},{"buffer":0,"byteLength":4,"byteOffset":189332},{"buffer":0,"byteLength":16,"byteOffset":189336},{"buffer":0,"byteLength":528,"byteOffset":189352},{"buffer":0,"byteLength":680,"byteOffset":189880},{"buffer":0,"byteLength":2720,"byteOffset":190560},{"buffer":0,"byteLength":528,"byteOffset":193280},{"buffer":0,"byteLength":528,"byteOffset":193808},{"buffer":0,"byteLength":528,"byteOffset":194336}],"buffers":[{"byteLength":194864,"uri":"data:application/octet-stream;base64,"}]}